<svg width="37" height="31" viewBox="0 0 37 31" fill="none" xmlns="http://www.w3.org/2000/svg">
<path d="M9.40339 4.32781C9.40339 2.23108 11.0086 0.526367 12.9829 0.526367H32.6704C34.6448 0.526367 36.25 2.23108 36.25 4.32781V21.4343C36.25 23.531 34.6448 25.2358 32.6704 25.2358H19.2919C18.6319 23.7211 17.6196 22.4144 16.3611 21.4343H21.9318V19.5336C21.9318 18.4823 22.7316 17.6329 23.7216 17.6329H27.3011C28.2911 17.6329 29.0909 18.4823 29.0909 19.5336V21.4343H32.6704V4.32781H12.9829V7.24423C11.9314 6.5968 10.7066 6.22853 9.40339 6.22853V4.32781ZM9.40339 8.12925C10.1085 8.12925 10.8067 8.27675 11.4581 8.56331C12.1096 8.84987 12.7015 9.26989 13.2001 9.79938C13.6987 10.3289 14.0942 10.9575 14.364 11.6493C14.6338 12.3411 14.7727 13.0826 14.7727 13.8314C14.7727 14.5802 14.6338 15.3217 14.364 16.0135C14.0942 16.7054 13.6987 17.334 13.2001 17.8635C12.7015 18.393 12.1096 18.813 11.4581 19.0995C10.8067 19.3861 10.1085 19.5336 9.40339 19.5336C8.69828 19.5336 8.00008 19.3861 7.34864 19.0995C6.69721 18.813 6.1053 18.393 5.60671 17.8635C5.10812 17.334 4.71262 16.7054 4.44279 16.0135C4.17296 15.3217 4.03407 14.5802 4.03407 13.8314C4.03407 13.0826 4.17296 12.3411 4.44279 11.6493C4.71262 10.9575 5.10812 10.3289 5.60671 9.79938C6.1053 9.26989 6.69721 8.84987 7.34864 8.56331C8.00008 8.27675 8.69828 8.12925 9.40339 8.12925ZM7.91005 21.4343H10.8911C15.0132 21.4343 18.3523 24.9803 18.3523 29.352C18.3523 30.2251 17.6867 30.9379 16.8589 30.9379H1.94787C1.1201 30.9379 0.454529 30.2311 0.454529 29.352C0.454529 24.9803 3.79357 21.4343 7.91005 21.4343Z" fill="#0984E3"/>
</svg>
