<svg width="33" height="32" viewBox="0 0 33 32" fill="none" xmlns="http://www.w3.org/2000/svg">
<path d="M31.687 28.0226H3.70142V1.0669C3.70142 0.876827 3.55499 0.721313 3.37601 0.721313H1.09812C0.919141 0.721313 0.772705 0.876827 0.772705 1.0669V30.7873C0.772705 30.9774 0.919141 31.1329 1.09812 31.1329H31.687C31.8659 31.1329 32.0124 30.9774 32.0124 30.7873V28.3682C32.0124 28.1781 31.8659 28.0226 31.687 28.0226ZM6.63014 25.2579H28.4328C28.6118 25.2579 28.7582 25.1024 28.7582 24.9123V6.07789C28.7582 5.76687 28.4044 5.61567 28.201 5.83166L19.6467 14.9163L14.5458 9.55967C14.4847 9.49536 14.4021 9.45928 14.316 9.45928C14.2299 9.45928 14.1473 9.49536 14.0862 9.55967L6.39829 17.7501C6.36843 17.7818 6.34479 17.8196 6.32873 17.8611C6.31267 17.9026 6.30451 17.9471 6.30473 17.992V24.9123C6.30473 25.1024 6.45117 25.2579 6.63014 25.2579Z" fill="#0984E3"/>
</svg>
