<svg width="33" height="32" viewBox="0 0 33 32" fill="none" xmlns="http://www.w3.org/2000/svg">
<path d="M3.23013 0.721313C1.74797 0.721313 0.545471 1.99836 0.545471 3.5724V15.9271H8.59945C9.09164 15.9271 9.49433 16.3548 9.49433 16.8774C9.49433 17.4001 9.09164 17.8278 8.59945 17.8278H0.545471V21.6293H8.59945C9.09164 21.6293 9.49433 22.0569 9.49433 22.5796C9.49433 23.1023 9.09164 23.53 8.59945 23.53H0.545471V28.2818C0.545471 29.8558 1.74797 31.1329 3.23013 31.1329H15.4174C15.065 30.527 14.8637 29.8142 14.8637 29.048C14.8637 26.2623 16.3067 23.8329 18.4432 22.5618V16.8656V3.5724C18.4432 1.99836 17.2407 0.721313 15.7585 0.721313H3.23013ZM9.04689 4.52276H9.94178C10.434 4.52276 10.8367 4.95042 10.8367 5.47312V6.89866H12.179C12.6712 6.89866 13.0739 7.32632 13.0739 7.84902V8.79938C13.0739 9.32208 12.6712 9.74974 12.179 9.74974H10.8367V11.1753C10.8367 11.698 10.434 12.1256 9.94178 12.1256H9.04689C8.5547 12.1256 8.152 11.698 8.152 11.1753V9.74974H6.80968C6.31749 9.74974 5.91479 9.32208 5.91479 8.79938V7.84902C5.91479 7.32632 6.31749 6.89866 6.80968 6.89866H8.152V5.47312C8.152 4.95042 8.5547 4.52276 9.04689 4.52276ZM29.1818 16.8774C29.1818 15.6172 28.7104 14.4086 27.8713 13.5174C27.0322 12.6263 25.8941 12.1256 24.7074 12.1256C23.5207 12.1256 22.3826 12.6263 21.5435 13.5174C20.7044 14.4086 20.233 15.6172 20.233 16.8774C20.233 18.1377 20.7044 19.3463 21.5435 20.2375C22.3826 21.1286 23.5207 21.6293 24.7074 21.6293C25.8941 21.6293 27.0322 21.1286 27.8713 20.2375C28.7104 19.3463 29.1818 18.1377 29.1818 16.8774ZM16.6534 29.0599C16.6534 30.2063 17.5259 31.1329 18.6054 31.1329H30.8094C31.8889 31.1329 32.7614 30.2063 32.7614 29.0599C32.7614 26.0069 30.4291 23.53 27.5543 23.53H21.8605C18.9857 23.53 16.6534 26.0069 16.6534 29.0599Z" fill="#0984E3"/>
</svg>
