<svg width="29" height="32" viewBox="0 0 29 32" fill="none" xmlns="http://www.w3.org/2000/svg">
<path fill-rule="evenodd" clip-rule="evenodd" d="M0.870839 1.91309H12.2354C12.5657 1.91309 12.8335 2.19747 12.8335 2.5483V14.6173C12.8335 14.9682 12.5657 15.2526 12.2354 15.2526H0.870839C0.540482 15.2526 0.272705 14.9682 0.272705 14.6173V2.5483C0.272705 2.19747 0.540482 1.91309 0.870839 1.91309ZM21.9668 0.907351L28.7339 8.09399C28.9675 8.34204 28.9675 8.74421 28.7339 8.9923L21.9668 16.1789C21.7332 16.4269 21.3545 16.4269 21.1209 16.1789L14.3538 8.99226C14.1202 8.74421 14.1202 8.34204 14.3538 8.09395L21.1209 0.907351C21.3545 0.659301 21.7332 0.659301 21.9668 0.907351ZM0.870839 17.7934H12.2354C12.5657 17.7934 12.8335 18.0778 12.8335 18.4286V30.4977C12.8335 30.8485 12.5657 31.1329 12.2354 31.1329H0.870839C0.540482 31.1329 0.272705 30.8485 0.272705 30.4977V18.4286C0.272705 18.0778 0.540482 17.7934 0.870839 17.7934ZM15.8242 17.7934H27.1887C27.5191 17.7934 27.7869 18.0778 27.7869 18.4286V30.4977C27.7869 30.8485 27.5191 31.1329 27.1887 31.1329H15.8242C15.4938 31.1329 15.2261 30.8485 15.2261 30.4977V18.4286C15.2261 18.0778 15.4938 17.7934 15.8242 17.7934Z" fill="#0984E3"/>
</svg>
