<svg width="37" height="32" viewBox="0 0 37 32" fill="none" xmlns="http://www.w3.org/2000/svg">
<path d="M10.7457 3.8086H18.7997C19.0458 3.8086 19.2471 4.02243 19.2471 4.28378V6.65969H10.2983V4.28378C10.2983 4.02243 10.4996 3.8086 10.7457 3.8086ZM7.61362 4.28378V6.65969H4.03407C2.05973 6.65969 0.454529 8.3644 0.454529 10.4611V16.1633H11.1932H20.142H20.6007C22.4072 13.8408 25.1366 12.3619 28.196 12.3619C28.498 12.3619 28.7945 12.3737 29.0909 12.4034V10.4611C29.0909 8.3644 27.4857 6.65969 25.5113 6.65969H21.9318V4.28378C21.9318 2.4484 20.5279 0.95752 18.7997 0.95752H10.7457C9.01747 0.95752 7.61362 2.4484 7.61362 4.28378ZM18.3523 21.8655H12.9829C11.993 21.8655 11.1932 21.0161 11.1932 19.9647V18.064H0.454529V25.6669C0.454529 27.7636 2.05973 29.4683 4.03407 29.4683H20.6007C19.1968 27.6627 18.3523 25.3402 18.3523 22.8158C18.3523 22.4951 18.3634 22.1803 18.3914 21.8655H18.3523ZM36.25 22.8158C36.25 20.5474 35.4014 18.3718 33.891 16.7678C32.3806 15.1637 30.3321 14.2626 28.196 14.2626C26.06 14.2626 24.0114 15.1637 22.501 16.7678C20.9906 18.3718 20.142 20.5474 20.142 22.8158C20.142 25.0843 20.9906 27.2598 22.501 28.8639C24.0114 30.4679 26.06 31.3691 28.196 31.3691C30.3321 31.3691 32.3806 30.4679 33.891 28.8639C35.4014 27.2598 36.25 25.0843 36.25 22.8158ZM28.196 18.064C28.6882 18.064 29.0909 18.4917 29.0909 19.0144V21.8655H30.8807C31.3729 21.8655 31.7756 22.2931 31.7756 22.8158C31.7756 23.3385 31.3729 23.7662 30.8807 23.7662H28.196C27.7038 23.7662 27.3011 23.3385 27.3011 22.8158V19.0144C27.3011 18.4917 27.7038 18.064 28.196 18.064Z" fill="#0984E3"/>
</svg>
