<svg width="38" height="41" viewBox="0 0 38 41" fill="none" xmlns="http://www.w3.org/2000/svg">
<path d="M19.25 0.888672C9.15954 0.888672 0.636353 9.94021 0.636353 20.6562C0.636353 31.3721 9.15954 40.4237 19.25 40.4237C29.3404 40.4237 37.8636 31.3721 37.8636 20.6562C37.8636 9.94021 29.3404 0.888672 19.25 0.888672ZM19.25 10.7724C22.4646 10.7724 24.8341 13.2869 24.8341 16.7027C24.8341 20.1185 22.4646 22.6329 19.25 22.6329C16.0373 22.6329 13.6659 20.1185 13.6659 16.7027C13.6659 13.2869 16.0373 10.7724 19.25 10.7724ZM9.74587 30.0892C11.4155 27.4799 14.2001 25.7404 17.3886 25.7404H21.1114C24.3017 25.7404 27.0845 27.4799 28.7541 30.0892C26.3753 32.7934 23.0006 34.4934 19.25 34.4934C15.4993 34.4934 12.1247 32.7934 9.74587 30.0892Z" fill="#0984E3"/>
</svg>
