<svg width="41" height="31" viewBox="0 0 41 31" fill="none" xmlns="http://www.w3.org/2000/svg">
<path d="M5.35737 4.32781C5.35737 3.31961 5.71816 2.35269 6.36036 1.63978C7.00257 0.926875 7.87359 0.526367 8.7818 0.526367C9.69002 0.526367 10.561 0.926875 11.2032 1.63978C11.8454 2.35269 12.2062 3.31961 12.2062 4.32781C12.2062 5.33602 11.8454 6.30293 11.2032 7.01584C10.561 7.72875 9.69002 8.12925 8.7818 8.12925C7.87359 8.12925 7.00257 7.72875 6.36036 7.01584C5.71816 6.30293 5.35737 5.33602 5.35737 4.32781ZM4.86817 15.0329C4.25666 15.7932 3.88976 16.8047 3.88976 17.9044C3.88976 19.0041 4.25666 20.0156 4.86817 20.7758V15.0329ZM13.6983 11.6863C11.8821 13.4716 10.7386 16.0851 10.7386 18.9905C10.7386 21.3189 11.4724 23.4572 12.6954 25.1339V26.5934C12.6954 27.7949 11.821 28.7657 10.7386 28.7657H6.82498C5.74262 28.7657 4.86817 27.7949 4.86817 26.5934V24.7741C2.55667 23.5523 0.954529 20.9388 0.954529 17.9044C0.954529 13.7024 4.01817 10.3015 7.80339 10.3015H9.76021C11.2278 10.3015 12.5854 10.8106 13.6983 11.6795V11.6863ZM28.35 26.5934V25.1339C29.573 23.4572 30.3068 21.3189 30.3068 18.9905C30.3068 16.0851 29.1633 13.4716 27.3471 11.6795C28.4601 10.8106 29.8176 10.3015 31.2852 10.3015H33.242C37.0272 10.3015 40.0909 13.7024 40.0909 17.9044C40.0909 20.9388 38.4887 23.5523 36.1773 24.7741V26.5934C36.1773 27.7949 35.3028 28.7657 34.2204 28.7657H30.3068C29.2244 28.7657 28.35 27.7949 28.35 26.5934ZM28.8392 4.32781C28.8392 3.31961 29.2 2.35269 29.8422 1.63978C30.4844 0.926875 31.3554 0.526367 32.2636 0.526367C33.1718 0.526367 34.0429 0.926875 34.6851 1.63978C35.3273 2.35269 35.6881 3.31961 35.6881 4.32781C35.6881 5.33602 35.3273 6.30293 34.6851 7.01584C34.0429 7.72875 33.1718 8.12925 32.2636 8.12925C31.3554 8.12925 30.4844 7.72875 29.8422 7.01584C29.2 6.30293 28.8392 5.33602 28.8392 4.32781ZM36.1773 15.0329V20.7826C36.7888 20.0156 37.1557 19.0109 37.1557 17.9112C37.1557 16.8115 36.7888 15.8 36.1773 15.0397V15.0329ZM20.5227 0.526367C21.5607 0.526367 22.5561 0.984091 23.2901 1.79884C24.024 2.6136 24.4363 3.71864 24.4363 4.87087C24.4363 6.02311 24.024 7.12815 23.2901 7.9429C22.5561 8.75766 21.5607 9.21538 20.5227 9.21538C19.4848 9.21538 18.4893 8.75766 17.7554 7.9429C17.0214 7.12815 16.6091 6.02311 16.6091 4.87087C16.6091 3.71864 17.0214 2.6136 17.7554 1.79884C18.4893 0.984091 19.4848 0.526367 20.5227 0.526367ZM15.6307 18.9905C15.6307 20.0902 15.9976 21.0949 16.6091 21.862V16.1191C15.9976 16.8862 15.6307 17.8908 15.6307 18.9905ZM24.4363 16.1191V21.8688C25.0479 21.1017 25.4148 20.097 25.4148 18.9973C25.4148 17.8976 25.0479 16.8862 24.4363 16.1259V16.1191ZM28.35 18.9905C28.35 22.0249 26.7478 24.6384 24.4363 25.8603V28.7657C24.4363 29.9672 23.5619 30.9379 22.4795 30.9379H18.5659C17.4835 30.9379 16.6091 29.9672 16.6091 28.7657V25.8603C14.2976 24.6384 12.6954 22.0249 12.6954 18.9905C12.6954 14.7886 15.7591 11.3876 19.5443 11.3876H21.5011C25.2863 11.3876 28.35 14.7886 28.35 18.9905Z" fill="#0984E3"/>
</svg>
