<svg width="40" height="32" viewBox="0 0 40 32" fill="none" xmlns="http://www.w3.org/2000/svg">
<path d="M10.9625 0.95752C10.8621 0.95752 10.7533 0.957519 10.6529 0.966406C7.816 1.0375 4.33479 1.91732 0 3.96135V25.5925C5.08793 23.033 8.92899 22.2954 12.0671 22.6509C13.2136 22.7753 14.268 23.0508 15.2387 23.4151L11.4646 16.4121C10.7449 16.7232 9.96666 16.9009 9.14657 16.9009C5.78167 16.9009 3.0377 13.986 3.0377 10.4134C3.0377 6.84076 5.78167 3.9258 9.14657 3.9258C12.5106 3.9258 15.2554 6.84076 15.2554 10.4134C15.2554 12.5463 14.2763 14.4392 12.77 15.6301L17.5651 24.5171C18.0839 24.8015 18.5777 25.1126 19.063 25.4236V3.82804C17.1216 2.25503 14.8621 1.16192 11.8663 0.984181C11.5734 0.966407 11.2721 0.95752 10.9625 0.95752ZM28.7033 0.95752C28.3937 0.95752 28.0841 0.966407 27.7912 0.984181C24.7953 1.16192 22.5442 2.25503 20.5944 3.82804V25.4236C22.5944 24.1261 24.7869 22.9619 27.5903 22.6509C30.7284 22.2954 34.5779 23.033 39.6574 25.5925V3.96135C35.331 1.91732 31.8498 1.0375 29.0129 0.966406C28.9041 0.966406 28.8037 0.95752 28.7033 0.95752ZM9.14657 5.52547C6.5959 5.52547 4.54399 7.70281 4.54399 10.4134C4.54399 13.1239 6.5959 15.3012 9.14657 15.3012C11.6989 15.3012 13.7491 13.1239 13.7491 10.4134C13.7491 7.70281 11.6989 5.52547 9.14657 5.52547ZM9.33904 6.76078H9.57335C7.55659 8.37822 6.66285 10.5022 6.78084 12.9995C4.60006 9.55132 6.88712 6.83187 9.33904 6.76078ZM10.4353 24.2239C7.75742 24.2505 4.42684 25.0948 0 27.4232V31.2002C5.08793 28.6407 8.92899 27.9031 12.0671 28.2586C13.6236 28.4363 14.9876 28.8718 16.2345 29.4406C15.8412 29.9827 15.4563 30.6226 15.0713 31.3691H19.5316L16.519 25.7969C15.1299 25.0593 13.6487 24.4994 11.9081 24.3039C11.4395 24.2505 10.9458 24.2239 10.4353 24.2239ZM28.9209 24.2239C28.5192 24.2328 28.1343 24.2594 27.7577 24.3039C24.9125 24.6238 22.7702 25.9035 20.5944 27.361V27.3877C20.0839 27.2188 19.5651 27.1833 19.063 27.281L21.2639 31.3691H24.879C24.3769 30.6403 23.8915 30.0005 23.3978 29.4495C24.653 28.8718 26.0254 28.4363 27.5903 28.2586C30.7284 27.9031 34.5779 28.6407 39.6574 31.2002V27.4232C35.2139 25.0859 31.8665 24.2328 29.1803 24.2239H28.9209Z" fill="#0984E3"/>
</svg>
